<svg xmlns="http://www.w3.org/2000/svg" viewBox="0 0 122 259"><defs><style>.cls-1,.cls-3{fill:#e5e5e5;}.cls-2{fill:#f7d9de;}.cls-3{fill-rule:evenodd;}.cls-4{fill:#fff;}</style></defs><g id="Capa_2" data-name="Capa 2"><g id="Capa_1-2" data-name="Capa 1"><path class="cls-1" d="M29,13h89V5H29Zm89,0a4,4,0,0,0,0-8ZM29,5a4,4,0,0,0,0,8Z"/><path class="cls-1" d="M29,43h89V35H29Zm89,0a4,4,0,0,0,0-8ZM29,35a4,4,0,0,0,0,8Z"/><path class="cls-1" d="M29,73h89V65H29Zm89,0a4,4,0,0,0,0-8ZM29,65a4,4,0,0,0,0,8Z"/><path class="cls-1" d="M29,103h89V95H29Zm89,0a4,4,0,0,0,0-8ZM29,95a4,4,0,0,0,0,8Z"/><path class="cls-1" d="M29,133h89v-8H29Zm89,0a4,4,0,0,0,0-8Zm-89-8a4,4,0,0,0,0,8Z"/><path class="cls-1" d="M29,163h89v-8H29Zm89,0a4,4,0,0,0,0-8Zm-89-8a4,4,0,0,0,0,8Z"/><path class="cls-1" d="M29,193h89v-8H29Zm89,0a4,4,0,0,0,0-8Zm-89-8a4,4,0,0,0,0,8Z"/><path class="cls-1" d="M29,223h89v-8H29Zm89,0a4,4,0,0,0,0-8Zm-89-8a4,4,0,0,0,0,8Z"/><path class="cls-1" d="M29,253h89v-8H29Zm89,0a4,4,0,0,0,0-8Zm-89-8a4,4,0,0,0,0,8Z"/><path class="cls-2" d="M29,13H99V5H29Zm70,0a4,4,0,0,0,0-8ZM29,5a4,4,0,0,0,0,8Z"/><path class="cls-2" d="M29,43H99V35H29Zm70,0a4,4,0,0,0,0-8ZM29,35a4,4,0,0,0,0,8Z"/><path class="cls-2" d="M29,73H99V65H29Zm70,0a4,4,0,0,0,0-8ZM29,65a4,4,0,0,0,0,8Z"/><path class="cls-2" d="M29,103H99V95H29Zm70,0a4,4,0,0,0,0-8ZM29,95a4,4,0,0,0,0,8Z"/><path class="cls-2" d="M29,133H74v-8H29Zm45,0a4,4,0,0,0,0-8Zm-45-8a4,4,0,0,0,0,8Z"/><path class="cls-2" d="M29,163H74v-8H29Zm45,0a4,4,0,0,0,0-8Zm-45-8a4,4,0,0,0,0,8Z"/><path class="cls-2" d="M29,193H99v-8H29Zm70,0a4,4,0,0,0,0-8Zm-70-8a4,4,0,0,0,0,8Z"/><path class="cls-2" d="M29,253H64v-8H29Zm35,0a4,4,0,0,0,0-8Zm-35-8a4,4,0,0,0,0,8Z"/><path class="cls-2" d="M29,223H99v-8H29Zm70,0a4,4,0,0,0,0-8Zm-70-8a4,4,0,0,0,0,8Z"/><path class="cls-3" d="M18.91,183.51v-.45a.73.73,0,0,0-.19-.49l-2.39-2.65v3.5a.08.08,0,0,0,.08.09ZM6.09,198.12v-18.2a.67.67,0,0,1,.63-.7h8.51v4.2a1.26,1.26,0,0,0,1.18,1.32h2.5v13.38a.67.67,0,0,1-.63.7H6.72A.67.67,0,0,1,6.09,198.12ZM5,179.92v18.2A1.83,1.83,0,0,0,6.72,200H18.28A1.83,1.83,0,0,0,20,198.12V183.06a2,2,0,0,0-.51-1.36l-2.84-3.14a1.6,1.6,0,0,0-1.2-.56H6.72A1.83,1.83,0,0,0,5,179.92Z"/><path class="cls-3" d="M12.81,187a.58.58,0,0,1,.55-.6H17a.6.6,0,0,1,0,1.2H13.36A.58.58,0,0,1,12.81,187Z"/><path class="cls-3" d="M12.81,189.8a.58.58,0,0,1,.55-.61H17a.61.61,0,0,1,0,1.21H13.36A.58.58,0,0,1,12.81,189.8Z"/><path class="cls-3" d="M12.81,192.55a.58.58,0,0,1,.55-.6H17a.6.6,0,0,1,0,1.2H13.36A.58.58,0,0,1,12.81,192.55Z"/><path class="cls-1" d="M0,184.37a1,1,0,0,1,.94-1h9.37a1,1,0,0,1,.94,1V194.7a1,1,0,0,1-.94,1H.94a1,1,0,0,1-.94-1Z"/><polygon class="cls-4" points="3.41 192.82 2.19 185.92 3.25 185.92 4.02 190.66 4.96 185.92 6.2 185.92 7.1 190.74 7.89 185.92 8.93 185.92 7.68 192.82 6.58 192.82 5.55 187.66 4.54 192.82 3.41 192.82"/><path class="cls-3" d="M18.91,213.51v-.45a.73.73,0,0,0-.19-.49l-2.39-2.65v3.5a.08.08,0,0,0,.08.09ZM6.09,228.12v-18.2a.67.67,0,0,1,.63-.7h8.51v4.2a1.26,1.26,0,0,0,1.18,1.32h2.5v13.38a.67.67,0,0,1-.63.7H6.72A.67.67,0,0,1,6.09,228.12ZM5,209.92v18.2A1.83,1.83,0,0,0,6.72,230H18.28A1.83,1.83,0,0,0,20,228.12V213.06a2,2,0,0,0-.51-1.36l-2.84-3.14a1.6,1.6,0,0,0-1.2-.56H6.72A1.83,1.83,0,0,0,5,209.92Z"/><path class="cls-3" d="M12.81,217a.58.58,0,0,1,.55-.6H17a.6.6,0,0,1,0,1.2H13.36A.58.58,0,0,1,12.81,217Z"/><path class="cls-3" d="M12.81,219.8a.58.58,0,0,1,.55-.61H17a.61.61,0,0,1,0,1.21H13.36A.58.58,0,0,1,12.81,219.8Z"/><path class="cls-3" d="M12.81,222.55a.58.58,0,0,1,.55-.6H17a.6.6,0,0,1,0,1.2H13.36A.58.58,0,0,1,12.81,222.55Z"/><path class="cls-1" d="M0,214.37a1,1,0,0,1,.94-1h9.37a1,1,0,0,1,.94,1V224.7a1,1,0,0,1-.94,1H.94a1,1,0,0,1-.94-1Z"/><polygon class="cls-4" points="3.13 223 4.88 219.39 3.29 216.09 4.5 216.09 5.53 218.31 6.54 216.09 7.74 216.09 6.15 219.45 7.9 223 6.65 223 5.51 220.61 4.37 223 3.13 223"/><path class="cls-4" d="M6.34,259a3.33,3.33,0,0,0,3.34-3.33v-3.34H6.34a3.34,3.34,0,1,0,0,6.67Z"/><path class="cls-4" d="M3,249a3.34,3.34,0,0,1,3.34-3.33H9.68v6.66H6.34A3.34,3.34,0,0,1,3,249Z"/><path class="cls-4" d="M3,242.33A3.34,3.34,0,0,1,6.34,239H9.68v6.67H6.34A3.35,3.35,0,0,1,3,242.33Z"/><path class="cls-4" d="M9.68,239H13a3.34,3.34,0,1,1,0,6.67H9.68Z"/><ellipse class="cls-4" cx="13.02" cy="249" rx="3.34" ry="3.33"/><path class="cls-4" d="M5.45,13.45c-1.21,2-2.39,3.22-3.08,3.22a.51.51,0,0,1-.31-.11.48.48,0,0,1-.14-.2.43.43,0,0,1,0-.25C2,15.4,3.41,14.37,5.45,13.45Zm3-2.11c.44-.95.83-1.92,1.18-2.91a14.5,14.5,0,0,0,1.62,2.18A26.77,26.77,0,0,0,8.44,11.34ZM8.55,1.19A.41.41,0,0,1,8.72,1,.42.42,0,0,1,9,.92c.46,0,.55.56.55,1a14,14,0,0,1-.6,3.27C8.15,3.13,8.26,1.69,8.55,1.19ZM17.08,12c-.06.36-.5.71-1.32.53a6.61,6.61,0,0,1-2.6-1.35,10.46,10.46,0,0,1,3.2,0C16.74,11.21,17.19,11.43,17.08,12Zm1.29-.93c-1.33-1.44-5-.85-5.84-.7a15.6,15.6,0,0,1-2.45-3.31,15.11,15.11,0,0,0,.84-4.32C10.92,1.42,10.4,0,9,0a1.53,1.53,0,0,0-.69.2,1.58,1.58,0,0,0-.51.52C7.16,1.8,7.4,4,8.38,6.27a38.68,38.68,0,0,1-2.48,6C4.43,12.83,1.32,14.3,1,15.93a1.38,1.38,0,0,0,0,.7,1.47,1.47,0,0,0,.38.59,1.81,1.81,0,0,0,1.27.47c1.87,0,3.74-2.67,5-5a31.58,31.58,0,0,1,4.46-1.2,7,7,0,0,0,4.64,2c1.21,0,1.66-.54,1.83-1a1.55,1.55,0,0,0,.06-.8A1.65,1.65,0,0,0,18.37,11.07Z"/><path class="cls-4" d="M4.4,65.14v3.62l.43,0h.58a4.09,4.09,0,0,0,1.26-.19A1.89,1.89,0,0,0,7.58,68a1.66,1.66,0,0,0,.34-1.11,1.72,1.72,0,0,0-.26-1,1.55,1.55,0,0,0-.77-.61,3.34,3.34,0,0,0-1.29-.22H4.85A3.38,3.38,0,0,0,4.4,65.14ZM2,74.26V63.18c0-.07,0-.12.11-.12h.62l.83,0,1,0h1a6.8,6.8,0,0,1,2.27.33,4,4,0,0,1,1.47.89,3.4,3.4,0,0,1,.8,1.22,4,4,0,0,1,.26,1.4,3.8,3.8,0,0,1-.66,2.3,3.79,3.79,0,0,1-1.77,1.31,7.29,7.29,0,0,1-2.48.37h-1v3.45a.13.13,0,0,1,0,.06.08.08,0,0,1,0,0s0,0,0,0H2.13C2,74.4,2,74.36,2,74.26Z"/><path class="cls-4" d="M17.18,68.1a3.9,3.9,0,0,0-1.06-.36,5.59,5.59,0,0,0-1.23-.14,2.47,2.47,0,0,0-.66.07.57.57,0,0,0-.34.22.75.75,0,0,0-.09.29.57.57,0,0,0,.11.28,1.2,1.2,0,0,0,.38.29q.38.19.78.36a8.09,8.09,0,0,1,1.69.78,2.5,2.5,0,0,1,.87.9,2.23,2.23,0,0,1,.25,1.11,2.47,2.47,0,0,1-.43,1.43,2.72,2.72,0,0,1-1.23,1,5.26,5.26,0,0,1-2,.34,7.45,7.45,0,0,1-1.49-.14,4.47,4.47,0,0,1-1.13-.34.26.26,0,0,1-.09-.09.24.24,0,0,1,0-.12V72.07s0,0,0-.06,0,0,0,0h.05l.05,0a4.69,4.69,0,0,0,1.36.53,5.14,5.14,0,0,0,1.3.16,2.08,2.08,0,0,0,.91-.15.55.55,0,0,0,.22-.18.53.53,0,0,0,.08-.27.57.57,0,0,0-.27-.43,4.87,4.87,0,0,0-1.07-.51,6.94,6.94,0,0,1-1.57-.77,2.91,2.91,0,0,1-.83-.92,2.34,2.34,0,0,1-.26-1.1,2.59,2.59,0,0,1,.38-1.3,2.69,2.69,0,0,1,1.15-1,4.35,4.35,0,0,1,2-.38,8.8,8.8,0,0,1,1.36.1,3.42,3.42,0,0,1,.95.25.17.17,0,0,1,.11.09.59.59,0,0,1,0,.13V68a.13.13,0,0,1,0,.06.08.08,0,0,1,0,0A.23.23,0,0,1,17.18,68.1Z"/><path class="cls-4" d="M6.67,40.26H9.3c-.06-.22-.14-.49-.24-.77s-.18-.59-.28-.91-.19-.65-.3-1-.2-.64-.28-1-.15-.57-.23-.83H8a12.49,12.49,0,0,1-.35,1.37c-.16.52-.31,1.05-.48,1.58S6.82,39.81,6.67,40.26Zm3.25,2.16H6.06l-.79,2.5A.15.15,0,0,1,5.2,45a.17.17,0,0,1-.12,0H3.13C3,45.07,3,45,3,44.88L6.35,35l.11-.35A4,4,0,0,0,6.52,34a.12.12,0,0,1,0-.08s0,0,.06,0H9.29c.08,0,.13,0,.14.09l3.78,11c0,.12,0,.17-.1.17H10.94a.12.12,0,0,1-.1,0,.24.24,0,0,1-.06-.09Z"/><path class="cls-4" d="M14.32,44.91V36.72c0-.11,0-.15.13-.15h2.06c.09,0,.13,0,.13.15v8.19c0,.12,0,.17-.13.17h-2a.07.07,0,0,1-.06,0l-.06,0,0-.06A.08.08,0,0,1,14.32,44.91Zm1.16-9.24a1.08,1.08,0,0,1-.5-.09,1.33,1.33,0,0,1-.43-.28,1.46,1.46,0,0,1-.35-1,1.1,1.1,0,0,1,.09-.51,1.18,1.18,0,0,1,.28-.44A1.35,1.35,0,0,1,15.5,33a1.24,1.24,0,0,1,.94.37,1.38,1.38,0,0,1,.35,1,1.6,1.6,0,0,1-.09.53,1.31,1.31,0,0,1-.28.45,1.13,1.13,0,0,1-.43.29A1.12,1.12,0,0,1,15.48,35.67Z"/><path class="cls-4" d="M6.31,94.05V105c0,.11,0,.17-.14.17h-2c-.09,0-.13-.06-.13-.17V94.05c0-.09,0-.13.15-.13h2a0,0,0,0,1,0,0l0,0,0,0a.06.06,0,0,1,0,0s0,0,0,0S6.32,94.05,6.31,94.05Z"/><path class="cls-4" d="M13.31,103.19V98.5l-.28,0-.34,0a2.49,2.49,0,0,0-1.17.28,2.39,2.39,0,0,0-.89.78,2.43,2.43,0,0,0-.34,1.36,2.9,2.9,0,0,0,.18,1.09,2.1,2.1,0,0,0,.46.76,1.86,1.86,0,0,0,.71.43,2.53,2.53,0,0,0,.86.13l.44,0A1,1,0,0,0,13.31,103.19Zm-1,2.13a5.06,5.06,0,0,1-2.23-.48,3.72,3.72,0,0,1-1.57-1.45A4.75,4.75,0,0,1,7.92,101a4.5,4.5,0,0,1,.57-2.24,4.36,4.36,0,0,1,1.65-1.65,5.17,5.17,0,0,1,2.63-.62H13l.32,0V93.12c0-.08,0-.12.1-.12h2.11a.1.1,0,0,1,.07,0,.09.09,0,0,1,0,.06v10.15c0,.19,0,.41,0,.64s0,.44,0,.62a.19.19,0,0,1,0,.1.19.19,0,0,1-.08.07,8.24,8.24,0,0,1-1.69.51A8.58,8.58,0,0,1,12.29,105.32Z"/><polygon class="cls-1" points="3.45 166.91 2 149.03 19.36 149.07 17.82 166.91 10.74 168.97 3.45 166.91"/><polygon class="cls-3" points="10.74 167.24 10.74 150.74 17.89 150.76 16.62 165.53 10.74 167.24"/><polygon class="cls-4" points="15.93 154.86 16.13 152.68 5.13 152.68 5.74 159.37 13.33 159.37 13.03 162.22 10.6 162.88 8.14 162.16 8.01 160.46 5.82 160.46 6.12 163.93 10.6 165.19 15.12 163.93 15.72 157.15 7.75 157.15 7.53 154.86 15.93 154.86"/><polygon class="cls-1" points="3.44 137.93 2 120 19.24 120.04 17.71 137.93 10.69 140 3.44 137.93"/><polygon class="cls-4" points="15.79 124.14 4.76 124.14 5.06 126.19 10.29 126.19 5.14 128.29 5.44 130.27 13.03 130.27 12.76 133.04 10.19 133.52 7.86 132.95 7.68 131.38 5.54 131.38 5.82 134.64 10.41 135.86 14.81 134.53 15.38 128.15 10.72 128.15 15.79 126.14 15.79 124.14"/></g></g></svg>